<?xml version="1.0" encoding="UTF-8" standalone="no"?>
<!DOCTYPE svg PUBLIC "-//W3C//DTD SVG 1.1//EN"
 "http://www.w3.org/Graphics/SVG/1.1/DTD/svg11.dtd">
<!-- Generated by graphviz version 2.42.3 (0)
 -->
<!-- Title: G Pages: 1 -->
<svg width="2906pt" height="520pt"
 viewBox="0.00 0.00 2905.73 519.70" xmlns="http://www.w3.org/2000/svg" xmlns:xlink="http://www.w3.org/1999/xlink">
<g id="graph0" class="graph" transform="scale(1 1) rotate(0) translate(4 515.7)">
<title>G</title>
<polygon fill="white" stroke="transparent" points="-4,4 -4,-515.7 2901.73,-515.7 2901.73,4 -4,4"/>
<g id="clust1" class="cluster">
<title>cluster_G</title>
<path fill="#808080" fill-opacity="0.094118" stroke="black" d="M44.73,-8C44.73,-8 2877.73,-8 2877.73,-8 2883.73,-8 2889.73,-14 2889.73,-20 2889.73,-20 2889.73,-491.7 2889.73,-491.7 2889.73,-497.7 2883.73,-503.7 2877.73,-503.7 2877.73,-503.7 44.73,-503.7 44.73,-503.7 38.73,-503.7 32.73,-497.7 32.73,-491.7 32.73,-491.7 32.73,-20 32.73,-20 32.73,-14 38.73,-8 44.73,-8"/>
</g>
<g id="clust2" class="cluster">
<title>cluster___init__</title>
<path fill="#808080" fill-opacity="0.094118" stroke="black" d="M226.73,-310.22C226.73,-310.22 378.73,-310.22 378.73,-310.22 384.73,-310.22 390.73,-316.22 390.73,-322.22 390.73,-322.22 390.73,-390.96 390.73,-390.96 390.73,-396.96 384.73,-402.96 378.73,-402.96 378.73,-402.96 226.73,-402.96 226.73,-402.96 220.73,-402.96 214.73,-396.96 214.73,-390.96 214.73,-390.96 214.73,-322.22 214.73,-322.22 214.73,-316.22 220.73,-310.22 226.73,-310.22"/>
<text text-anchor="middle" x="302.73" y="-387.76" font-family="Times,serif" font-size="14.00">__init__</text>
</g>
<g id="clust3" class="cluster">
<title>cluster___init____Chapter</title>
<path fill="#808080" fill-opacity="0.094118" stroke="black" d="M410.73,-209.48C410.73,-209.48 1165.73,-209.48 1165.73,-209.48 1171.73,-209.48 1177.73,-215.48 1177.73,-221.48 1177.73,-221.48 1177.73,-390.96 1177.73,-390.96 1177.73,-396.96 1171.73,-402.96 1165.73,-402.96 1165.73,-402.96 410.73,-402.96 410.73,-402.96 404.73,-402.96 398.73,-396.96 398.73,-390.96 398.73,-390.96 398.73,-221.48 398.73,-221.48 398.73,-215.48 404.73,-209.48 410.73,-209.48"/>
<text text-anchor="middle" x="788.23" y="-387.76" font-family="Times,serif" font-size="14.00">__init__.Chapter</text>
</g>
<g id="clust4" class="cluster">
<title>cluster_renderer</title>
<path fill="#808080" fill-opacity="0.094118" stroke="black" d="M1197.73,-209.48C1197.73,-209.48 1777.73,-209.48 1777.73,-209.48 1783.73,-209.48 1789.73,-215.48 1789.73,-221.48 1789.73,-221.48 1789.73,-390.96 1789.73,-390.96 1789.73,-396.96 1783.73,-402.96 1777.73,-402.96 1777.73,-402.96 1197.73,-402.96 1197.73,-402.96 1191.73,-402.96 1185.73,-396.96 1185.73,-390.96 1185.73,-390.96 1185.73,-221.48 1185.73,-221.48 1185.73,-215.48 1191.73,-209.48 1197.73,-209.48"/>
<text text-anchor="middle" x="1487.73" y="-387.76" font-family="Times,serif" font-size="14.00">renderer</text>
</g>
<g id="clust5" class="cluster">
<title>cluster_renderer__element</title>
<path fill="#808080" fill-opacity="0.094118" stroke="black" d="M1809.73,-310.22C1809.73,-310.22 2439.73,-310.22 2439.73,-310.22 2445.73,-310.22 2451.73,-316.22 2451.73,-322.22 2451.73,-322.22 2451.73,-483.7 2451.73,-483.7 2451.73,-489.7 2445.73,-495.7 2439.73,-495.7 2439.73,-495.7 1809.73,-495.7 1809.73,-495.7 1803.73,-495.7 1797.73,-489.7 1797.73,-483.7 1797.73,-483.7 1797.73,-322.22 1797.73,-322.22 1797.73,-316.22 1803.73,-310.22 1809.73,-310.22"/>
<text text-anchor="middle" x="2124.73" y="-480.5" font-family="Times,serif" font-size="14.00">renderer.element</text>
</g>
<g id="clust6" class="cluster">
<title>cluster_renderer__text</title>
<path fill="#808080" fill-opacity="0.094118" stroke="black" d="M2471.73,-310.22C2471.73,-310.22 2857.73,-310.22 2857.73,-310.22 2863.73,-310.22 2869.73,-316.22 2869.73,-322.22 2869.73,-322.22 2869.73,-390.96 2869.73,-390.96 2869.73,-396.96 2863.73,-402.96 2857.73,-402.96 2857.73,-402.96 2471.73,-402.96 2471.73,-402.96 2465.73,-402.96 2459.73,-396.96 2459.73,-390.96 2459.73,-390.96 2459.73,-322.22 2459.73,-322.22 2459.73,-316.22 2465.73,-310.22 2471.73,-310.22"/>
<text text-anchor="middle" x="2664.73" y="-387.76" font-family="Times,serif" font-size="14.00">renderer.text</text>
</g>
<g id="clust7" class="cluster">
<title>cluster_styles</title>
<path fill="#808080" fill-opacity="0.094118" stroke="black" d="M933.73,-16C933.73,-16 1637.73,-16 1637.73,-16 1643.73,-16 1649.73,-22 1649.73,-28 1649.73,-28 1649.73,-189.48 1649.73,-189.48 1649.73,-195.48 1643.73,-201.48 1637.73,-201.48 1637.73,-201.48 933.73,-201.48 933.73,-201.48 927.73,-201.48 921.73,-195.48 921.73,-189.48 921.73,-189.48 921.73,-28 921.73,-28 921.73,-22 927.73,-16 933.73,-16"/>
<text text-anchor="middle" x="1285.73" y="-186.28" font-family="Times,serif" font-size="14.00">styles</text>
</g>
<g id="clust8" class="cluster">
<title>cluster_styles__Margins</title>
<path fill="#808080" fill-opacity="0.094118" stroke="black" d="M1809.73,-209.48C1809.73,-209.48 2139.73,-209.48 2139.73,-209.48 2145.73,-209.48 2151.73,-215.48 2151.73,-221.48 2151.73,-221.48 2151.73,-290.22 2151.73,-290.22 2151.73,-296.22 2145.73,-302.22 2139.73,-302.22 2139.73,-302.22 1809.73,-302.22 1809.73,-302.22 1803.73,-302.22 1797.73,-296.22 1797.73,-290.22 1797.73,-290.22 1797.73,-221.48 1797.73,-221.48 1797.73,-215.48 1803.73,-209.48 1809.73,-209.48"/>
<text text-anchor="middle" x="1974.73" y="-287.02" font-family="Times,serif" font-size="14.00">styles.Margins</text>
</g>
<g id="clust9" class="cluster">
<title>cluster_styles__StyleHandler</title>
<path fill="#808080" fill-opacity="0.094118" stroke="black" d="M355.73,-16C355.73,-16 901.73,-16 901.73,-16 907.73,-16 913.73,-22 913.73,-28 913.73,-28 913.73,-189.48 913.73,-189.48 913.73,-195.48 907.73,-201.48 901.73,-201.48 901.73,-201.48 355.73,-201.48 355.73,-201.48 349.73,-201.48 343.73,-195.48 343.73,-189.48 343.73,-189.48 343.73,-28 343.73,-28 343.73,-22 349.73,-16 355.73,-16"/>
<text text-anchor="middle" x="628.73" y="-186.28" font-family="Times,serif" font-size="14.00">styles.StyleHandler</text>
</g>
<g id="clust10" class="cluster">
<title>cluster_styles__style_selector</title>
<path fill="#808080" fill-opacity="0.094118" stroke="black" d="M1669.73,-16C1669.73,-16 2380.73,-16 2380.73,-16 2386.73,-16 2392.73,-22 2392.73,-28 2392.73,-28 2392.73,-96.74 2392.73,-96.74 2392.73,-102.74 2386.73,-108.74 2380.73,-108.74 2380.73,-108.74 1669.73,-108.74 1669.73,-108.74 1663.73,-108.74 1657.73,-102.74 1657.73,-96.74 1657.73,-96.74 1657.73,-28 1657.73,-28 1657.73,-22 1663.73,-16 1669.73,-16"/>
<text text-anchor="middle" x="2025.23" y="-93.54" font-family="Times,serif" font-size="14.00">styles.style_selector</text>
</g>
<!-- __init__ -->
<g id="node1" class="node">
<title>__init__</title>
<ellipse fill="#ffffff" fill-opacity="0.698039" stroke="black" cx="683.73" cy="-437.83" rx="44.39" ry="18"/>
<text text-anchor="middle" x="683.73" y="-434.13" font-family="Times,serif" font-size="14.00" fill="#000000">__init__</text>
</g>
<!-- renderer -->
<g id="node2" class="node">
<title>renderer</title>
<ellipse fill="#ffffff" fill-opacity="0.698039" stroke="black" cx="112.73" cy="-345.09" rx="51.99" ry="18"/>
<text text-anchor="middle" x="112.73" y="-341.39" font-family="Times,serif" font-size="14.00" fill="#000000">renderer</text>
</g>
<!-- __init__&#45;&gt;renderer -->
<g id="edge35" class="edge">
<title>__init__&#45;&gt;renderer</title>
<path fill="none" stroke="#000000" d="M639.16,-437.42C531.77,-438.27 261.45,-436.88 178.73,-402.96 161.23,-395.79 145.08,-382.05 133.13,-369.88"/>
<polygon fill="#000000" stroke="#000000" points="135.66,-367.46 126.26,-362.57 130.56,-372.25 135.66,-367.46"/>
</g>
<!-- styles -->
<g id="node3" class="node">
<title>styles</title>
<ellipse fill="#ffffff" fill-opacity="0.698039" stroke="black" cx="332.73" cy="-244.35" rx="38.19" ry="18"/>
<text text-anchor="middle" x="332.73" y="-240.65" font-family="Times,serif" font-size="14.00" fill="#000000">styles</text>
</g>
<!-- __init__&#45;&gt;styles -->
<g id="edge37" class="edge">
<title>__init__&#45;&gt;styles</title>
<path fill="none" stroke="#000000" d="M639.26,-437.1C525.08,-437.32 228.41,-434.79 198.73,-402.96 170.62,-372.82 176.83,-345.14 198.73,-310.22 218.11,-279.3 256.89,-262.75 287.76,-254.13"/>
<polygon fill="#000000" stroke="#000000" points="288.68,-257.51 297.47,-251.6 286.91,-250.73 288.68,-257.51"/>
</g>
<!-- __init____Chapter -->
<g id="node4" class="node">
<title>__init____Chapter</title>
<ellipse fill="#fecccc" fill-opacity="0.698039" stroke="black" cx="302.73" cy="-345.09" rx="79.81" ry="26.74"/>
<text text-anchor="middle" x="302.73" y="-348.89" font-family="Times,serif" font-size="14.00" fill="#000000">Chapter</text>
<text text-anchor="middle" x="302.73" y="-333.89" font-family="Times,serif" font-size="14.00" fill="#000000">(__init__.py:8)</text>
</g>
<!-- __init__&#45;&gt;__init____Chapter -->
<g id="edge36" class="edge">
<title>__init__&#45;&gt;__init____Chapter</title>
<path fill="none" stroke="#000000" d="M639.32,-437.53C581.42,-437.13 477.74,-431.87 394.73,-402.96 376.32,-396.55 357.72,-385.99 342.11,-375.7"/>
<polygon fill="#000000" stroke="#000000" points="344,-372.76 333.76,-370.04 340.07,-378.55 344,-372.76"/>
</g>
<!-- __init____Chapter____init__ -->
<g id="node5" class="node">
<title>__init____Chapter____init__</title>
<ellipse fill="#ff9999" fill-opacity="0.698039" stroke="black" cx="683.73" cy="-345.09" rx="86.03" ry="26.74"/>
<text text-anchor="middle" x="683.73" y="-348.89" font-family="Times,serif" font-size="14.00" fill="#000000">__init__</text>
<text text-anchor="middle" x="683.73" y="-333.89" font-family="Times,serif" font-size="14.00" fill="#000000">(__init__.py:23)</text>
</g>
<!-- __init__&#45;&gt;__init____Chapter____init__ -->
<g id="edge38" class="edge">
<title>__init__&#45;&gt;__init____Chapter____init__</title>
<path fill="none" stroke="#000000" d="M683.73,-419.76C683.73,-409.15 683.73,-395.1 683.73,-382.11"/>
<polygon fill="#000000" stroke="#000000" points="687.23,-382.01 683.73,-372.01 680.23,-382.01 687.23,-382.01"/>
</g>
<!-- __init____Chapter__render -->
<g id="node8" class="node">
<title>__init____Chapter__render</title>
<ellipse fill="#ff9999" fill-opacity="0.698039" stroke="black" cx="1065.73" cy="-345.09" rx="86.03" ry="26.74"/>
<text text-anchor="middle" x="1065.73" y="-348.89" font-family="Times,serif" font-size="14.00" fill="#000000">render</text>
<text text-anchor="middle" x="1065.73" y="-333.89" font-family="Times,serif" font-size="14.00" fill="#000000">(__init__.py:45)</text>
</g>
<!-- __init__&#45;&gt;__init____Chapter__render -->
<g id="edge40" class="edge">
<title>__init__&#45;&gt;__init____Chapter__render</title>
<path fill="none" stroke="#000000" d="M728.09,-437.21C785.4,-436.44 887.56,-430.77 969.73,-402.96 988.77,-396.52 1008.15,-385.95 1024.47,-375.66"/>
<polygon fill="#000000" stroke="#000000" points="1026.71,-378.38 1033.19,-370.01 1022.9,-372.51 1026.71,-378.38"/>
</g>
<!-- renderer__debug_printer -->
<g id="node10" class="node">
<title>renderer__debug_printer</title>
<ellipse fill="#e5fecc" fill-opacity="0.698039" stroke="black" cx="1281.73" cy="-345.09" rx="87.86" ry="26.74"/>
<text text-anchor="middle" x="1281.73" y="-348.89" font-family="Times,serif" font-size="14.00" fill="#000000">debug_printer</text>
<text text-anchor="middle" x="1281.73" y="-333.89" font-family="Times,serif" font-size="14.00" fill="#000000">(renderer.py:4)</text>
</g>
<!-- __init__&#45;&gt;renderer__debug_printer -->
<g id="edge39" class="edge">
<title>__init__&#45;&gt;renderer__debug_printer</title>
<path fill="none" stroke="#000000" d="M728.1,-436.34C833.71,-434.76 1097.51,-428.32 1181.73,-402.96 1201.92,-396.88 1222.47,-386.14 1239.64,-375.62"/>
<polygon fill="#000000" stroke="#000000" points="1241.71,-378.46 1248.3,-370.16 1237.97,-372.53 1241.71,-378.46"/>
</g>
<!-- styles__StyleHandler -->
<g id="node21" class="node">
<title>styles__StyleHandler</title>
<ellipse fill="#ccfefe" fill-opacity="0.698039" stroke="black" cx="1015.73" cy="-143.61" rx="86.03" ry="26.74"/>
<text text-anchor="middle" x="1015.73" y="-147.41" font-family="Times,serif" font-size="14.00" fill="#000000">StyleHandler</text>
<text text-anchor="middle" x="1015.73" y="-132.41" font-family="Times,serif" font-size="14.00" fill="#000000">(styles.py:142)</text>
</g>
<!-- __init__&#45;&gt;styles__StyleHandler -->
<g id="edge33" class="edge">
<title>__init__&#45;&gt;styles__StyleHandler</title>
<path fill="none" stroke="#000000" d="M639.54,-437.01C527.59,-437.01 239.58,-433.96 210.73,-402.96 196.68,-387.88 196.5,-325.13 210.73,-310.22 223.7,-296.62 365.71,-314.74 379.73,-302.22 410.87,-274.41 363.14,-236.79 394.73,-209.48 405.72,-199.98 903.73,-205.36 917.73,-201.48 937.9,-195.88 958.25,-185.11 975.13,-174.43"/>
<polygon fill="#000000" stroke="#000000" points="977.16,-177.28 983.62,-168.88 973.33,-171.42 977.16,-177.28"/>
</g>
<!-- styles__StyleHandler____init__ -->
<g id="node29" class="node">
<title>styles__StyleHandler____init__</title>
<ellipse fill="#99feff" fill-opacity="0.698039" stroke="black" cx="628.73" cy="-50.87" rx="86.03" ry="26.74"/>
<text text-anchor="middle" x="628.73" y="-54.67" font-family="Times,serif" font-size="14.00" fill="#000000">__init__</text>
<text text-anchor="middle" x="628.73" y="-39.67" font-family="Times,serif" font-size="14.00" fill="#000000">(styles.py:144)</text>
</g>
<!-- __init__&#45;&gt;styles__StyleHandler____init__ -->
<g id="edge34" class="edge">
<title>__init__&#45;&gt;styles__StyleHandler____init__</title>
<path fill="none" stroke="#000000" d="M639.42,-436.11C499,-433.61 71.92,-424.27 51.73,-402.96 -108.07,-234.37 139.96,-195.86 318.73,-116.74 388.41,-85.9 473.5,-69.44 536.89,-60.83"/>
<polygon fill="#000000" stroke="#000000" points="537.41,-64.29 546.87,-59.51 536.5,-57.35 537.41,-64.29"/>
</g>
<!-- renderer&#45;&gt;styles -->
<g id="edge1" class="edge">
<title>renderer&#45;&gt;styles</title>
<path fill="none" stroke="#000000" d="M139.79,-329.62C151.64,-323.43 165.77,-316.26 178.73,-310.22 217.75,-292.02 263.3,-273.11 294.68,-260.44"/>
<polygon fill="#000000" stroke="#000000" points="296.37,-263.53 304.35,-256.56 293.76,-257.04 296.37,-263.53"/>
</g>
<!-- styles&#45;&gt;styles__StyleHandler -->
<g id="edge15" class="edge">
<title>styles&#45;&gt;styles__StyleHandler</title>
<path fill="none" stroke="#000000" d="M350.69,-228.02C360.16,-220.93 372.36,-213.25 384.73,-209.48 441.38,-192.19 860.65,-217.3 917.73,-201.48 937.91,-195.89 958.25,-185.11 975.13,-174.43"/>
<polygon fill="#000000" stroke="#000000" points="977.16,-177.28 983.62,-168.88 973.33,-171.42 977.16,-177.28"/>
</g>
<!-- styles__ppStyle -->
<g id="node22" class="node">
<title>styles__ppStyle</title>
<ellipse fill="#ccfefe" fill-opacity="0.698039" stroke="black" cx="1384.73" cy="-143.61" rx="73.58" ry="26.74"/>
<text text-anchor="middle" x="1384.73" y="-147.41" font-family="Times,serif" font-size="14.00" fill="#000000">ppStyle</text>
<text text-anchor="middle" x="1384.73" y="-132.41" font-family="Times,serif" font-size="14.00" fill="#000000">(styles.py:5)</text>
</g>
<!-- styles&#45;&gt;styles__ppStyle -->
<g id="edge18" class="edge">
<title>styles&#45;&gt;styles__ppStyle</title>
<path fill="none" stroke="#000000" d="M352.88,-229.03C364.52,-221.64 379.77,-213.37 394.73,-209.48 443.5,-196.8 1253.66,-216.6 1301.73,-201.48 1319.14,-196 1336.16,-185.52 1350.22,-175.04"/>
<polygon fill="#000000" stroke="#000000" points="1352.37,-177.79 1358.13,-168.9 1348.08,-172.26 1352.37,-177.79"/>
</g>
<!-- styles&#45;&gt;styles__StyleHandler____init__ -->
<g id="edge16" class="edge">
<title>styles&#45;&gt;styles__StyleHandler____init__</title>
<path fill="none" stroke="#000000" d="M328.36,-226.22C322.63,-199.4 316.18,-147.42 342.73,-116.74 367.9,-87.64 463.04,-70.29 536.76,-60.96"/>
<polygon fill="#000000" stroke="#000000" points="537.51,-64.39 547.01,-59.7 536.65,-57.45 537.51,-64.39"/>
</g>
<!-- styles__StyleHandler__overwrite -->
<g id="node32" class="node">
<title>styles__StyleHandler__overwrite</title>
<ellipse fill="#99feff" fill-opacity="0.698039" stroke="black" cx="437.73" cy="-143.61" rx="86.03" ry="26.74"/>
<text text-anchor="middle" x="437.73" y="-147.41" font-family="Times,serif" font-size="14.00" fill="#000000">overwrite</text>
<text text-anchor="middle" x="437.73" y="-132.41" font-family="Times,serif" font-size="14.00" fill="#000000">(styles.py:150)</text>
</g>
<!-- styles&#45;&gt;styles__StyleHandler__overwrite -->
<g id="edge17" class="edge">
<title>styles&#45;&gt;styles__StyleHandler__overwrite</title>
<path fill="none" stroke="#000000" d="M349.13,-227.92C363.67,-214.25 385.36,-193.86 403.64,-176.67"/>
<polygon fill="#000000" stroke="#000000" points="406.34,-178.93 411.23,-169.53 401.55,-173.83 406.34,-178.93"/>
</g>
<!-- __init____Chapter__contents -->
<g id="node6" class="node">
<title>__init____Chapter__contents</title>
<ellipse fill="#ff9999" fill-opacity="0.698039" stroke="black" cx="1065.73" cy="-244.35" rx="86.03" ry="26.74"/>
<text text-anchor="middle" x="1065.73" y="-248.15" font-family="Times,serif" font-size="14.00" fill="#000000">contents</text>
<text text-anchor="middle" x="1065.73" y="-233.15" font-family="Times,serif" font-size="14.00" fill="#000000">(__init__.py:43)</text>
</g>
<!-- __init____Chapter__hasBody -->
<g id="node7" class="node">
<title>__init____Chapter__hasBody</title>
<ellipse fill="#ff9999" fill-opacity="0.698039" stroke="black" cx="874.73" cy="-345.09" rx="86.03" ry="26.74"/>
<text text-anchor="middle" x="874.73" y="-348.89" font-family="Times,serif" font-size="14.00" fill="#000000">hasBody</text>
<text text-anchor="middle" x="874.73" y="-333.89" font-family="Times,serif" font-size="14.00" fill="#000000">(__init__.py:37)</text>
</g>
<!-- __init____Chapter__render&#45;&gt;__init____Chapter__contents -->
<g id="edge41" class="edge">
<title>__init____Chapter__render&#45;&gt;__init____Chapter__contents</title>
<path fill="none" stroke="#000000" d="M1065.73,-318.15C1065.73,-307.01 1065.73,-293.8 1065.73,-281.72"/>
<polygon fill="#000000" stroke="#000000" points="1069.23,-281.46 1065.73,-271.46 1062.23,-281.46 1069.23,-281.46"/>
</g>
<!-- __init____Chapter__render&#45;&gt;__init____Chapter__render -->
<g id="edge42" class="edge">
<title>__init____Chapter__render&#45;&gt;__init____Chapter__render</title>
<path fill="none" stroke="#000000" d="M1131.91,-362.34C1153.16,-362.16 1169.99,-356.41 1169.99,-345.09 1169.99,-335.63 1158.23,-330.06 1141.96,-328.38"/>
<polygon fill="#000000" stroke="#000000" points="1142.08,-324.88 1131.91,-327.84 1141.71,-331.87 1142.08,-324.88"/>
</g>
<!-- __init____Chapter__title -->
<g id="node9" class="node">
<title>__init____Chapter__title</title>
<ellipse fill="#ff9999" fill-opacity="0.698039" stroke="black" cx="492.73" cy="-345.09" rx="86.03" ry="26.74"/>
<text text-anchor="middle" x="492.73" y="-348.89" font-family="Times,serif" font-size="14.00" fill="#000000">title</text>
<text text-anchor="middle" x="492.73" y="-333.89" font-family="Times,serif" font-size="14.00" fill="#000000">(__init__.py:35)</text>
</g>
<!-- renderer__element -->
<g id="node11" class="node">
<title>renderer__element</title>
<ellipse fill="#e5fecc" fill-opacity="0.698039" stroke="black" cx="1384.73" cy="-244.35" rx="94.09" ry="26.74"/>
<text text-anchor="middle" x="1384.73" y="-248.15" font-family="Times,serif" font-size="14.00" fill="#000000">element</text>
<text text-anchor="middle" x="1384.73" y="-233.15" font-family="Times,serif" font-size="14.00" fill="#000000">(renderer.py:24)</text>
</g>
<!-- renderer__debug_printer&#45;&gt;renderer__element -->
<g id="edge2" class="edge">
<title>renderer__debug_printer&#45;&gt;renderer__element</title>
<path fill="none" stroke="#000000" d="M1307.72,-319.17C1320.89,-306.54 1337.05,-291.06 1351.15,-277.54"/>
<polygon fill="#000000" stroke="#000000" points="1353.95,-279.71 1358.74,-270.26 1349.1,-274.65 1353.95,-279.71"/>
</g>
<!-- renderer__render -->
<g id="node12" class="node">
<title>renderer__render</title>
<ellipse fill="#e5fecc" fill-opacity="0.698039" stroke="black" cx="1481.73" cy="-345.09" rx="94.09" ry="26.74"/>
<text text-anchor="middle" x="1481.73" y="-348.89" font-family="Times,serif" font-size="14.00" fill="#000000">render</text>
<text text-anchor="middle" x="1481.73" y="-333.89" font-family="Times,serif" font-size="14.00" fill="#000000">(renderer.py:62)</text>
</g>
<!-- renderer__render&#45;&gt;renderer__element -->
<g id="edge14" class="edge">
<title>renderer__render&#45;&gt;renderer__element</title>
<path fill="none" stroke="#000000" d="M1457,-318.92C1444.69,-306.38 1429.66,-291.08 1416.5,-277.69"/>
<polygon fill="#000000" stroke="#000000" points="1418.92,-275.16 1409.41,-270.48 1413.92,-280.06 1418.92,-275.16"/>
</g>
<!-- renderer__element____init__ -->
<g id="node14" class="node">
<title>renderer__element____init__</title>
<ellipse fill="#ccff99" fill-opacity="0.698039" stroke="black" cx="2331.73" cy="-437.83" rx="94.09" ry="26.74"/>
<text text-anchor="middle" x="2331.73" y="-441.63" font-family="Times,serif" font-size="14.00" fill="#000000">__init__</text>
<text text-anchor="middle" x="2331.73" y="-426.63" font-family="Times,serif" font-size="14.00" fill="#000000">(renderer.py:27)</text>
</g>
<!-- renderer__render&#45;&gt;renderer__element____init__ -->
<g id="edge13" class="edge">
<title>renderer__render&#45;&gt;renderer__element____init__</title>
<path fill="none" stroke="#000000" d="M1515.65,-370.4C1534.91,-382.72 1560.04,-396.43 1584.73,-402.96 1619.32,-412.11 2193.25,-406.35 2228.73,-410.96 2238.09,-412.18 2247.83,-413.94 2257.42,-415.99"/>
<polygon fill="#000000" stroke="#000000" points="2256.81,-419.44 2267.34,-418.21 2258.34,-412.61 2256.81,-419.44"/>
</g>
<!-- renderer__text -->
<g id="node13" class="node">
<title>renderer__text</title>
<ellipse fill="#e5fecc" fill-opacity="0.698039" stroke="black" cx="1687.73" cy="-345.09" rx="94.09" ry="26.74"/>
<text text-anchor="middle" x="1687.73" y="-348.89" font-family="Times,serif" font-size="14.00" fill="#000000">text</text>
<text text-anchor="middle" x="1687.73" y="-333.89" font-family="Times,serif" font-size="14.00" fill="#000000">(renderer.py:15)</text>
</g>
<!-- renderer__element____init__&#45;&gt;renderer__text -->
<g id="edge7" class="edge">
<title>renderer__element____init__&#45;&gt;renderer__text</title>
<path fill="none" stroke="#000000" d="M2267.05,-418.21C2254.44,-415.25 2241.25,-412.63 2228.73,-410.96 2180.81,-404.59 1840.5,-415.17 1793.73,-402.96 1772.02,-397.29 1749.87,-386.37 1731.46,-375.6"/>
<polygon fill="#000000" stroke="#000000" points="1733.12,-372.51 1722.75,-370.34 1729.51,-378.5 1733.12,-372.51"/>
</g>
<!-- renderer__element____init__&#45;&gt;renderer__element____init__ -->
<g id="edge3" class="edge">
<title>renderer__element____init__&#45;&gt;renderer__element____init__</title>
<path fill="none" stroke="#000000" d="M2403.93,-455.06C2426.25,-454.72 2443.77,-448.97 2443.77,-437.83 2443.77,-428.43 2431.3,-422.87 2413.99,-421.16"/>
<polygon fill="#000000" stroke="#000000" points="2414.11,-417.66 2403.93,-420.6 2413.72,-424.65 2414.11,-417.66"/>
</g>
<!-- renderer__element__content_width -->
<g id="node15" class="node">
<title>renderer__element__content_width</title>
<ellipse fill="#ccff99" fill-opacity="0.698039" stroke="black" cx="2331.73" cy="-345.09" rx="94.09" ry="26.74"/>
<text text-anchor="middle" x="2331.73" y="-348.89" font-family="Times,serif" font-size="14.00" fill="#000000">content_width</text>
<text text-anchor="middle" x="2331.73" y="-333.89" font-family="Times,serif" font-size="14.00" fill="#000000">(renderer.py:40)</text>
</g>
<!-- renderer__element____init__&#45;&gt;renderer__element__content_width -->
<g id="edge5" class="edge">
<title>renderer__element____init__&#45;&gt;renderer__element__content_width</title>
<path fill="none" stroke="#000000" d="M2331.73,-410.58C2331.73,-401.67 2331.73,-391.54 2331.73,-382"/>
<polygon fill="#000000" stroke="#000000" points="2335.23,-381.96 2331.73,-371.96 2328.23,-381.96 2335.23,-381.96"/>
</g>
<!-- renderer__text____init__ -->
<g id="node18" class="node">
<title>renderer__text____init__</title>
<ellipse fill="#ccff99" fill-opacity="0.698039" stroke="black" cx="2767.73" cy="-345.09" rx="94.09" ry="26.74"/>
<text text-anchor="middle" x="2767.73" y="-348.89" font-family="Times,serif" font-size="14.00" fill="#000000">__init__</text>
<text text-anchor="middle" x="2767.73" y="-333.89" font-family="Times,serif" font-size="14.00" fill="#000000">(renderer.py:17)</text>
</g>
<!-- renderer__element____init__&#45;&gt;renderer__text____init__ -->
<g id="edge8" class="edge">
<title>renderer__element____init__&#45;&gt;renderer__text____init__</title>
<path fill="none" stroke="#000000" d="M2423.47,-431.63C2506.17,-426.19 2621.26,-416.55 2664.73,-402.96 2685.15,-396.58 2706.1,-385.9 2723.73,-375.51"/>
<polygon fill="#000000" stroke="#000000" points="2725.89,-378.29 2732.63,-370.12 2722.26,-372.3 2725.89,-378.29"/>
</g>
<!-- styles__Margins -->
<g id="node20" class="node">
<title>styles__Margins</title>
<ellipse fill="#ccfefe" fill-opacity="0.698039" stroke="black" cx="1206.73" cy="-50.87" rx="79.81" ry="26.74"/>
<text text-anchor="middle" x="1206.73" y="-54.67" font-family="Times,serif" font-size="14.00" fill="#000000">Margins</text>
<text text-anchor="middle" x="1206.73" y="-39.67" font-family="Times,serif" font-size="14.00" fill="#000000">(styles.py:57)</text>
</g>
<!-- renderer__element____init__&#45;&gt;styles__Margins -->
<g id="edge6" class="edge">
<title>renderer__element____init__&#45;&gt;styles__Margins</title>
<path fill="none" stroke="#000000" d="M2425.03,-434.28C2576.01,-429.71 2858.63,-419.03 2873.73,-402.96 2901.95,-372.92 2900.5,-341.56 2873.73,-310.22 2695.01,-101 1924.5,-144.36 1650.73,-116.74 1570.61,-108.66 1549.59,-119.06 1469.73,-108.74 1404.11,-100.26 1330.61,-83.76 1278.02,-70.7"/>
<polygon fill="#000000" stroke="#000000" points="1278.67,-67.26 1268.12,-68.23 1276.97,-74.05 1278.67,-67.26"/>
</g>
<!-- styles__Margins____init__ -->
<g id="node27" class="node">
<title>styles__Margins____init__</title>
<ellipse fill="#99feff" fill-opacity="0.698039" stroke="black" cx="1885.73" cy="-244.35" rx="79.81" ry="26.74"/>
<text text-anchor="middle" x="1885.73" y="-248.15" font-family="Times,serif" font-size="14.00" fill="#000000">__init__</text>
<text text-anchor="middle" x="1885.73" y="-233.15" font-family="Times,serif" font-size="14.00" fill="#000000">(styles.py:59)</text>
</g>
<!-- renderer__element____init__&#45;&gt;styles__Margins____init__ -->
<g id="edge4" class="edge">
<title>renderer__element____init__&#45;&gt;styles__Margins____init__</title>
<path fill="none" stroke="#000000" d="M2410.28,-423.01C2419.84,-418.15 2428.44,-411.65 2434.73,-402.96 2458.9,-369.57 2463.62,-339.62 2434.73,-310.22 2425.77,-301.11 1986.96,-305.91 1974.73,-302.22 1956.38,-296.69 1938.19,-286.2 1923.07,-275.72"/>
<polygon fill="#000000" stroke="#000000" points="1924.71,-272.58 1914.55,-269.58 1920.63,-278.27 1924.71,-272.58"/>
</g>
<!-- renderer__element__make_text_block -->
<g id="node16" class="node">
<title>renderer__element__make_text_block</title>
<ellipse fill="#ccff99" fill-opacity="0.698039" stroke="black" cx="2124.73" cy="-437.83" rx="94.51" ry="26.74"/>
<text text-anchor="middle" x="2124.73" y="-441.63" font-family="Times,serif" font-size="14.00" fill="#000000">make_text_block</text>
<text text-anchor="middle" x="2124.73" y="-426.63" font-family="Times,serif" font-size="14.00" fill="#000000">(renderer.py:46)</text>
</g>
<!-- renderer__element__render -->
<g id="node17" class="node">
<title>renderer__element__render</title>
<ellipse fill="#ccff99" fill-opacity="0.698039" stroke="black" cx="1899.73" cy="-437.83" rx="94.09" ry="26.74"/>
<text text-anchor="middle" x="1899.73" y="-441.63" font-family="Times,serif" font-size="14.00" fill="#000000">render</text>
<text text-anchor="middle" x="1899.73" y="-426.63" font-family="Times,serif" font-size="14.00" fill="#000000">(renderer.py:48)</text>
</g>
<!-- renderer__element__render&#45;&gt;__init____Chapter__render -->
<g id="edge11" class="edge">
<title>renderer__element__render&#45;&gt;__init____Chapter__render</title>
<path fill="none" stroke="#000000" d="M1836.93,-417.82C1825.32,-415.01 1813.23,-412.53 1801.73,-410.96 1733.46,-401.65 1248.74,-418.96 1181.73,-402.96 1157.4,-397.15 1132.26,-385.62 1111.63,-374.44"/>
<polygon fill="#000000" stroke="#000000" points="1113.23,-371.32 1102.78,-369.53 1109.82,-377.44 1113.23,-371.32"/>
</g>
<!-- renderer__element__render&#45;&gt;renderer__render -->
<g id="edge9" class="edge">
<title>renderer__element__render&#45;&gt;renderer__render</title>
<path fill="none" stroke="#000000" d="M1836.37,-417.92C1824.93,-415.14 1813.04,-412.64 1801.73,-410.96 1754,-403.87 1631.23,-415.86 1584.73,-402.96 1563.78,-397.15 1542.44,-386.34 1524.66,-375.69"/>
<polygon fill="#000000" stroke="#000000" points="1526.06,-372.44 1515.71,-370.16 1522.38,-378.39 1526.06,-372.44"/>
</g>
<!-- renderer__element__render&#45;&gt;renderer__element__render -->
<g id="edge10" class="edge">
<title>renderer__element__render&#45;&gt;renderer__element__render</title>
<path fill="none" stroke="#000000" d="M1971.93,-455.06C1994.25,-454.72 2011.77,-448.97 2011.77,-437.83 2011.77,-428.43 1999.3,-422.87 1981.99,-421.16"/>
<polygon fill="#000000" stroke="#000000" points="1982.11,-417.66 1971.93,-420.6 1981.72,-424.65 1982.11,-417.66"/>
</g>
<!-- renderer__text__render -->
<g id="node19" class="node">
<title>renderer__text__render</title>
<ellipse fill="#ccff99" fill-opacity="0.698039" stroke="black" cx="2561.73" cy="-345.09" rx="94.09" ry="26.74"/>
<text text-anchor="middle" x="2561.73" y="-348.89" font-family="Times,serif" font-size="14.00" fill="#000000">render</text>
<text text-anchor="middle" x="2561.73" y="-333.89" font-family="Times,serif" font-size="14.00" fill="#000000">(renderer.py:20)</text>
</g>
<!-- renderer__element__render&#45;&gt;renderer__text__render -->
<g id="edge12" class="edge">
<title>renderer__element__render&#45;&gt;renderer__text__render</title>
<path fill="none" stroke="#000000" d="M1969.09,-419.61C1985.89,-416.11 2003.87,-412.9 2020.73,-410.96 2068.75,-405.44 2408.95,-415.17 2455.73,-402.96 2477.43,-397.29 2499.59,-386.37 2517.99,-375.6"/>
<polygon fill="#000000" stroke="#000000" points="2519.95,-378.5 2526.71,-370.34 2516.34,-372.51 2519.95,-378.5"/>
</g>
<!-- styles__Margins____str__ -->
<g id="node28" class="node">
<title>styles__Margins____str__</title>
<ellipse fill="#99feff" fill-opacity="0.698039" stroke="black" cx="2063.73" cy="-244.35" rx="79.81" ry="26.74"/>
<text text-anchor="middle" x="2063.73" y="-248.15" font-family="Times,serif" font-size="14.00" fill="#000000">__str__</text>
<text text-anchor="middle" x="2063.73" y="-233.15" font-family="Times,serif" font-size="14.00" fill="#000000">(styles.py:85)</text>
</g>
<!-- styles__ppStyle&#45;&gt;styles__Margins____str__ -->
<g id="edge19" class="edge">
<title>styles__ppStyle&#45;&gt;styles__Margins____str__</title>
<path fill="none" stroke="#000000" d="M1410.97,-168.84C1426.08,-181.14 1446.11,-194.85 1466.73,-201.48 1520.47,-218.76 1919.29,-198.84 1974.73,-209.48 1985.78,-211.6 1997.24,-214.99 2008.12,-218.82"/>
<polygon fill="#000000" stroke="#000000" points="2006.91,-222.1 2017.51,-222.28 2009.33,-215.54 2006.91,-222.1"/>
</g>
<!-- styles__style_selector____str__ -->
<g id="node36" class="node">
<title>styles__style_selector____str__</title>
<ellipse fill="#99feff" fill-opacity="0.698039" stroke="black" cx="1929.73" cy="-50.87" rx="86.03" ry="26.74"/>
<text text-anchor="middle" x="1929.73" y="-54.67" font-family="Times,serif" font-size="14.00" fill="#000000">__str__</text>
<text text-anchor="middle" x="1929.73" y="-39.67" font-family="Times,serif" font-size="14.00" fill="#000000">(styles.py:103)</text>
</g>
<!-- styles__ppStyle&#45;&gt;styles__style_selector____str__ -->
<g id="edge20" class="edge">
<title>styles__ppStyle&#45;&gt;styles__style_selector____str__</title>
<path fill="none" stroke="#000000" d="M1435.8,-124.05C1445.92,-121.07 1456.57,-118.42 1466.73,-116.74 1507.08,-110.08 1795.43,-120.07 1834.73,-108.74 1854.21,-103.13 1873.76,-92.49 1890.02,-81.91"/>
<polygon fill="#000000" stroke="#000000" points="1892.35,-84.56 1898.7,-76.08 1888.44,-78.76 1892.35,-84.56"/>
</g>
<!-- styles__separateUnit -->
<g id="node23" class="node">
<title>styles__separateUnit</title>
<ellipse fill="#ccfefe" fill-opacity="0.698039" stroke="black" cx="1558.73" cy="-50.87" rx="79.81" ry="26.74"/>
<text text-anchor="middle" x="1558.73" y="-54.67" font-family="Times,serif" font-size="14.00" fill="#000000">separateUnit</text>
<text text-anchor="middle" x="1558.73" y="-39.67" font-family="Times,serif" font-size="14.00" fill="#000000">(styles.py:22)</text>
</g>
<!-- styles__style_selector -->
<g id="node24" class="node">
<title>styles__style_selector</title>
<ellipse fill="#ccfefe" fill-opacity="0.698039" stroke="black" cx="1019.73" cy="-50.87" rx="81.13" ry="26.74"/>
<text text-anchor="middle" x="1019.73" y="-54.67" font-family="Times,serif" font-size="14.00" fill="#000000">style_selector</text>
<text text-anchor="middle" x="1019.73" y="-39.67" font-family="Times,serif" font-size="14.00" fill="#000000">(styles.py:88)</text>
</g>
<!-- styles__style_to_dict -->
<g id="node25" class="node">
<title>styles__style_to_dict</title>
<ellipse fill="#ccfefe" fill-opacity="0.698039" stroke="black" cx="1206.73" cy="-143.61" rx="86.03" ry="26.74"/>
<text text-anchor="middle" x="1206.73" y="-147.41" font-family="Times,serif" font-size="14.00" fill="#000000">style_to_dict</text>
<text text-anchor="middle" x="1206.73" y="-132.41" font-family="Times,serif" font-size="14.00" fill="#000000">(styles.py:106)</text>
</g>
<!-- styles__style_to_dict&#45;&gt;styles__Margins -->
<g id="edge26" class="edge">
<title>styles__style_to_dict&#45;&gt;styles__Margins</title>
<path fill="none" stroke="#000000" d="M1206.73,-116.36C1206.73,-107.45 1206.73,-97.32 1206.73,-87.78"/>
<polygon fill="#000000" stroke="#000000" points="1210.23,-87.74 1206.73,-77.74 1203.23,-87.74 1210.23,-87.74"/>
</g>
<!-- styles__style_to_dict&#45;&gt;styles__style_selector -->
<g id="edge24" class="edge">
<title>styles__style_to_dict&#45;&gt;styles__style_selector</title>
<path fill="none" stroke="#000000" d="M1151.07,-123.02C1139.89,-118.64 1128.32,-113.79 1117.73,-108.74 1100.05,-100.31 1081.3,-89.84 1064.98,-80.19"/>
<polygon fill="#000000" stroke="#000000" points="1066.57,-77.06 1056.19,-74.93 1062.97,-83.06 1066.57,-77.06"/>
</g>
<!-- styles__style_to_dict&#45;&gt;styles__Margins____init__ -->
<g id="edge25" class="edge">
<title>styles__style_to_dict&#45;&gt;styles__Margins____init__</title>
<path fill="none" stroke="#000000" d="M1237.75,-168.87C1255.43,-181.18 1278.62,-194.89 1301.73,-201.48 1354.3,-216.48 1739.98,-199.45 1793.73,-209.48 1805.36,-211.65 1817.46,-215.14 1828.92,-219.07"/>
<polygon fill="#000000" stroke="#000000" points="1827.77,-222.38 1838.37,-222.46 1830.13,-215.79 1827.77,-222.38"/>
</g>
<!-- styles__StyleHandler__get -->
<g id="node31" class="node">
<title>styles__StyleHandler__get</title>
<ellipse fill="#99feff" fill-opacity="0.698039" stroke="black" cx="819.73" cy="-143.61" rx="86.03" ry="26.74"/>
<text text-anchor="middle" x="819.73" y="-147.41" font-family="Times,serif" font-size="14.00" fill="#000000">get</text>
<text text-anchor="middle" x="819.73" y="-132.41" font-family="Times,serif" font-size="14.00" fill="#000000">(styles.py:161)</text>
</g>
<!-- styles__style_to_dict&#45;&gt;styles__StyleHandler__get -->
<g id="edge27" class="edge">
<title>styles__style_to_dict&#45;&gt;styles__StyleHandler__get</title>
<path fill="none" stroke="#000000" d="M1169.04,-167.81C1151.59,-178.63 1130.4,-191.23 1110.73,-201.48 1106.85,-203.5 1106.01,-204.57 1101.73,-205.48 1082.71,-209.52 945.75,-209.52 926.73,-205.48 902.7,-200.38 878.77,-187.47 859.65,-174.76"/>
<polygon fill="#000000" stroke="#000000" points="861.44,-171.74 851.22,-168.96 857.47,-177.51 861.44,-171.74"/>
</g>
<!-- styles__style_selector____init__ -->
<g id="node35" class="node">
<title>styles__style_selector____init__</title>
<ellipse fill="#99feff" fill-opacity="0.698039" stroke="black" cx="1745.73" cy="-50.87" rx="79.81" ry="26.74"/>
<text text-anchor="middle" x="1745.73" y="-54.67" font-family="Times,serif" font-size="14.00" fill="#000000">__init__</text>
<text text-anchor="middle" x="1745.73" y="-39.67" font-family="Times,serif" font-size="14.00" fill="#000000">(styles.py:91)</text>
</g>
<!-- styles__style_to_dict&#45;&gt;styles__style_selector____init__ -->
<g id="edge28" class="edge">
<title>styles__style_to_dict&#45;&gt;styles__style_selector____init__</title>
<path fill="none" stroke="#000000" d="M1266.06,-124.08C1277.77,-121.1 1290.06,-118.44 1301.73,-116.74 1340.44,-111.11 1616.22,-119.86 1653.73,-108.74 1672.72,-103.11 1691.67,-92.47 1707.4,-81.9"/>
<polygon fill="#000000" stroke="#000000" points="1709.58,-84.65 1715.79,-76.06 1705.58,-78.9 1709.58,-84.65"/>
</g>
<!-- styles__unitConverter -->
<g id="node26" class="node">
<title>styles__unitConverter</title>
<ellipse fill="#ccfefe" fill-opacity="0.698039" stroke="black" cx="1558.73" cy="-143.61" rx="82.96" ry="26.74"/>
<text text-anchor="middle" x="1558.73" y="-147.41" font-family="Times,serif" font-size="14.00" fill="#000000">unitConverter</text>
<text text-anchor="middle" x="1558.73" y="-132.41" font-family="Times,serif" font-size="14.00" fill="#000000">(styles.py:34)</text>
</g>
<!-- styles__unitConverter&#45;&gt;styles__separateUnit -->
<g id="edge21" class="edge">
<title>styles__unitConverter&#45;&gt;styles__separateUnit</title>
<path fill="none" stroke="#000000" d="M1558.73,-116.36C1558.73,-107.45 1558.73,-97.32 1558.73,-87.78"/>
<polygon fill="#000000" stroke="#000000" points="1562.23,-87.74 1558.73,-77.74 1555.23,-87.74 1562.23,-87.74"/>
</g>
<!-- styles__Margins____init__&#45;&gt;styles__unitConverter -->
<g id="edge22" class="edge">
<title>styles__Margins____init__&#45;&gt;styles__unitConverter</title>
<path fill="none" stroke="#000000" d="M1834.41,-223.6C1821.23,-218.76 1807.01,-213.75 1793.73,-209.48 1740.31,-192.31 1679.2,-175.52 1632.68,-163.33"/>
<polygon fill="#000000" stroke="#000000" points="1633.55,-159.94 1622.99,-160.8 1631.78,-166.71 1633.55,-159.94"/>
</g>
<!-- styles__Margins____str__&#45;&gt;styles__unitConverter -->
<g id="edge23" class="edge">
<title>styles__Margins____str__&#45;&gt;styles__unitConverter</title>
<path fill="none" stroke="#000000" d="M2015.36,-222.85C2002.35,-217.91 1988.15,-213.04 1974.73,-209.48 1863.89,-180.09 1732.68,-162.36 1647.69,-153.04"/>
<polygon fill="#000000" stroke="#000000" points="1647.87,-149.54 1637.56,-151.94 1647.12,-156.5 1647.87,-149.54"/>
</g>
<!-- styles__StyleHandler____init__&#45;&gt;styles__style_to_dict -->
<g id="edge29" class="edge">
<title>styles__StyleHandler____init__&#45;&gt;styles__style_to_dict</title>
<path fill="none" stroke="#000000" d="M695.42,-68.01C753.7,-81.39 840.79,-99.63 917.73,-108.74 1002.98,-118.84 1025.87,-103.71 1110.73,-116.74 1119.28,-118.05 1128.17,-119.84 1136.92,-121.88"/>
<polygon fill="#000000" stroke="#000000" points="1136.19,-125.3 1146.74,-124.26 1137.84,-118.5 1136.19,-125.3"/>
</g>
<!-- styles__StyleHandler__copy -->
<g id="node30" class="node">
<title>styles__StyleHandler__copy</title>
<ellipse fill="#99feff" fill-opacity="0.698039" stroke="black" cx="628.73" cy="-143.61" rx="86.03" ry="26.74"/>
<text text-anchor="middle" x="628.73" y="-147.41" font-family="Times,serif" font-size="14.00" fill="#000000">copy</text>
<text text-anchor="middle" x="628.73" y="-132.41" font-family="Times,serif" font-size="14.00" fill="#000000">(styles.py:170)</text>
</g>
<!-- styles__StyleHandler__copy&#45;&gt;styles__StyleHandler____init__ -->
<g id="edge32" class="edge">
<title>styles__StyleHandler__copy&#45;&gt;styles__StyleHandler____init__</title>
<path fill="none" stroke="#000000" d="M628.73,-116.36C628.73,-107.45 628.73,-97.32 628.73,-87.78"/>
<polygon fill="#000000" stroke="#000000" points="632.23,-87.74 628.73,-77.74 625.23,-87.74 632.23,-87.74"/>
</g>
<!-- styles__StyleHandler__get&#45;&gt;styles__style_selector -->
<g id="edge30" class="edge">
<title>styles__StyleHandler__get&#45;&gt;styles__style_selector</title>
<path fill="none" stroke="#000000" d="M878.94,-124.03C891.89,-119.44 905.4,-114.25 917.73,-108.74 936.48,-100.35 956.37,-89.69 973.56,-79.87"/>
<polygon fill="#000000" stroke="#000000" points="975.37,-82.87 982.28,-74.83 971.87,-76.81 975.37,-82.87"/>
</g>
<!-- styles__StyleHandler__get&#45;&gt;styles__style_selector____init__ -->
<g id="edge31" class="edge">
<title>styles__StyleHandler__get&#45;&gt;styles__style_selector____init__</title>
<path fill="none" stroke="#000000" d="M879.9,-124.23C892.3,-121.15 905.35,-118.42 917.73,-116.74 958.25,-111.26 1614.45,-120.13 1653.73,-108.74 1672.9,-103.18 1692.02,-92.43 1707.81,-81.76"/>
<polygon fill="#000000" stroke="#000000" points="1710.04,-84.47 1716.23,-75.87 1706.03,-78.74 1710.04,-84.47"/>
</g>
<!-- styles__style_selector____eq__ -->
<g id="node33" class="node">
<title>styles__style_selector____eq__</title>
<ellipse fill="#99feff" fill-opacity="0.698039" stroke="black" cx="2304.73" cy="-50.87" rx="79.81" ry="26.74"/>
<text text-anchor="middle" x="2304.73" y="-54.67" font-family="Times,serif" font-size="14.00" fill="#000000">__eq__</text>
<text text-anchor="middle" x="2304.73" y="-39.67" font-family="Times,serif" font-size="14.00" fill="#000000">(styles.py:99)</text>
</g>
<!-- styles__style_selector____hash__ -->
<g id="node34" class="node">
<title>styles__style_selector____hash__</title>
<ellipse fill="#99feff" fill-opacity="0.698039" stroke="black" cx="2120.73" cy="-50.87" rx="86.03" ry="26.74"/>
<text text-anchor="middle" x="2120.73" y="-54.67" font-family="Times,serif" font-size="14.00" fill="#000000">__hash__</text>
<text text-anchor="middle" x="2120.73" y="-39.67" font-family="Times,serif" font-size="14.00" fill="#000000">(styles.py:101)</text>
</g>
</g>
</svg>
